<svg width="20" height="20" viewBox="0 0 20 20" fill="none" xmlns="http://www.w3.org/2000/svg">
<path fill-rule="evenodd" clip-rule="evenodd" d="M15.8334 15.0002H4.16669C3.70752 15.0002 3.33335 14.6268 3.33335 14.1668V6.04183L9.50002 10.6668C9.64835 10.7785 9.82419 10.8335 10 10.8335C10.1759 10.8335 10.3517 10.7785 10.5 10.6668L16.6667 6.04183V14.1668C16.6667 14.6268 16.2925 15.0002 15.8334 15.0002ZM15.2775 5.00016L10 8.9585L4.72252 5.00016H15.2775ZM15.8334 3.3335H4.16669C2.78835 3.3335 1.66669 4.45516 1.66669 5.8335V14.1668C1.66669 15.5452 2.78835 16.6668 4.16669 16.6668H15.8334C17.2117 16.6668 18.3334 15.5452 18.3334 14.1668V5.8335C18.3334 4.45516 17.2117 3.3335 15.8334 3.3335Z" fill="white"/>
<mask id="mask0" mask-type="alpha" maskUnits="userSpaceOnUse" x="1" y="3" width="18" height="14">
<path fill-rule="evenodd" clip-rule="evenodd" d="M15.8334 15.0002H4.16669C3.70752 15.0002 3.33335 14.6268 3.33335 14.1668V6.04183L9.50002 10.6668C9.64835 10.7785 9.82419 10.8335 10 10.8335C10.1759 10.8335 10.3517 10.7785 10.5 10.6668L16.6667 6.04183V14.1668C16.6667 14.6268 16.2925 15.0002 15.8334 15.0002ZM15.2775 5.00016L10 8.9585L4.72252 5.00016H15.2775ZM15.8334 3.3335H4.16669C2.78835 3.3335 1.66669 4.45516 1.66669 5.8335V14.1668C1.66669 15.5452 2.78835 16.6668 4.16669 16.6668H15.8334C17.2117 16.6668 18.3334 15.5452 18.3334 14.1668V5.8335C18.3334 4.45516 17.2117 3.3335 15.8334 3.3335Z" fill="white"/>
</mask>
<g mask="url(#mask0)">
</g>
</svg>
