<svg width="64" height="64" viewBox="0 0 64 64" fill="none" xmlns="http://www.w3.org/2000/svg">
<circle cx="32" cy="32" r="31" stroke="white" stroke-width="2"/>
<path fill-rule="evenodd" clip-rule="evenodd" d="M41.625 30.8492H33.1512V22.4073C33.1512 21.6469 32.759 21 32 21C31.241 21 30.8489 21.6469 30.8489 22.4073V30.8492H22.407C21.648 30.8492 21 31.2396 21 32C21 32.7604 21.648 33.1515 22.407 33.1515H30.8489V41.5933C30.8489 42.3537 31.241 43 32 43C32.759 43 33.1512 42.3537 33.1512 41.5933V33.1515H41.625C42.384 33.1515 43 32.7604 43 32C43 31.2396 42.384 30.8492 41.625 30.8492Z" fill="white"/>
</svg>
