<svg width="183" height="98" viewBox="0 0 183 98" fill="none" xmlns="http://www.w3.org/2000/svg">
<g clip-path="url(#clip0)">
<path fill-rule="evenodd" clip-rule="evenodd" d="M0 40.8188H5.96009C10.1248 40.8188 13.6253 44.4431 13.6253 49.0019C13.6253 53.4661 10.124 57.0904 5.96009 57.1849H0V40.8188ZM2.55482 42.7705V55.2323H5.29839C9.0838 55.1379 10.9753 52.1639 10.9753 49.0922C10.9753 45.9293 9.08298 43.3264 5.96009 42.8608L2.55482 42.7705ZM23.6557 40.4436C28.7662 40.4436 32.8331 44.2567 32.8331 49.001C32.8331 53.7411 28.7654 57.5552 23.6557 57.5552C18.6406 57.5552 14.4784 53.742 14.4784 49.001C14.4775 44.2575 18.6406 40.4436 23.6557 40.4436ZM23.6557 42.4906C27.3468 42.4906 30.3736 45.3734 30.3736 49.0019C30.3736 52.535 27.3468 55.418 23.6557 55.418C20.0608 55.418 17.0314 52.535 17.0314 49.0019C17.0314 45.3734 20.0599 42.4906 23.6557 42.4906ZM33.5909 40.8189H36.0504V55.2332H40.7816V57.1849H33.5909V40.8189ZM48.73 40.3533C50.6223 40.3533 52.421 40.9091 53.934 41.8402V44.8176C52.7025 43.3264 50.8111 42.396 48.73 42.396C45.039 42.396 42.1056 45.3734 42.1056 49.0019C42.1056 52.535 45.039 55.509 48.73 55.509C50.812 55.509 52.7034 54.582 53.934 53.0917V56.1601C52.4202 57.0912 50.6215 57.6514 48.73 57.6514C43.7148 57.6514 39.5527 53.7429 39.5527 49.0028C39.5527 44.2575 43.7156 40.3533 48.73 40.3533V40.3533ZM57.2457 55.2324H63.2075V57.1841H54.6909V40.8188H63.2075V42.676H57.2457V47.5107H63.2075V49.4666H57.2457V55.2324ZM72.5754 56.069C72.2913 56.3491 72.0064 56.5346 71.628 56.7193C71.3439 56.9049 70.9663 56.9994 70.587 57.0896C70.4926 57.0896 70.3982 57.0896 70.3038 57.1841H70.0198C69.7356 57.1841 69.5461 57.0896 69.2619 57.0896C68.9779 56.9994 68.7882 56.904 68.5042 56.7193C68.3154 56.5338 68.1265 56.2538 67.9378 55.9737C67.8425 55.6979 67.7481 55.418 67.6537 55.1379V55.0434V54.9532V54.8587V54.6732H67.7481V54.5829V54.4885C67.8417 54.0229 68.0322 53.6526 68.4098 53.2773C68.7874 53.0015 69.1658 52.7215 69.5452 52.4415C69.3563 52.1657 69.1658 51.8857 68.9771 51.6055C68.7874 51.42 68.693 51.0498 68.693 50.7697V50.6752V50.4897V50.3953C68.7874 50.3953 68.7874 50.3051 68.7874 50.3051C68.8826 49.9348 69.0723 49.6547 69.3563 49.3738C69.734 49.1883 70.018 49.0938 70.3964 49.0938H70.6805C71.0581 49.0938 71.5318 49.2836 71.9111 49.5593C72.1943 49.8394 72.3832 50.2097 72.3832 50.7706C72.3832 51.2362 72.2895 51.6064 72.0047 51.8864C71.6263 52.2567 71.3431 52.5367 70.9646 52.7223L72.7626 54.8595C72.857 54.6739 73.0466 54.4892 73.2363 54.2091C73.425 54.0236 73.5195 53.8389 73.71 53.6534L74.2773 54.2091C74.1828 54.3947 73.9932 54.5837 73.8988 54.7692C73.8043 54.9547 73.6147 55.1395 73.4251 55.325L73.3307 55.4195C73.3307 55.4195 73.3307 55.5097 73.2363 55.5097L74.5604 57.0009H73.4249L72.5754 56.069ZM70.3982 56.3491C70.6822 56.3491 70.9663 56.2546 71.2495 56.069C71.4392 55.8835 71.7223 55.6988 71.9129 55.509H72.0064L72.1016 55.4188L70.0206 53.0917C70.0206 53.1862 70.0206 53.1862 69.9253 53.1862L69.8309 53.2764C69.6413 53.3709 69.5469 53.4662 69.3589 53.5565C69.1676 53.742 69.0749 53.8365 68.9797 54.022C68.886 54.022 68.886 54.1165 68.886 54.2076C68.7908 54.3021 68.7908 54.3931 68.7908 54.4876C68.6964 54.582 68.6964 54.6732 68.6964 54.6732V54.9532C68.6964 55.3235 68.7908 55.6035 69.0758 55.9745C69.4533 56.2546 69.7374 56.3491 70.2102 56.3491H70.3055H70.3982ZM69.6413 50.5833V50.7681C69.6413 50.9536 69.6413 51.1384 69.7365 51.3239C69.8309 51.5094 70.0206 51.6983 70.1141 51.7894C70.1763 51.8523 70.2395 51.9142 70.3038 51.975L70.3982 52.0695H70.4926C70.4926 52.0695 70.587 52.0695 70.587 51.975C70.7767 51.8848 70.9663 51.7894 71.156 51.6047C71.3447 51.4191 71.44 51.2344 71.5336 50.9545V50.86V50.7698C71.5336 50.4897 71.4392 50.3042 71.2495 50.1195C71.0599 50.025 70.8719 49.9339 70.6822 49.9339H70.587H70.4926C70.3038 49.9339 70.1141 49.9339 69.9245 50.1195C69.7365 50.208 69.6413 50.3936 69.6413 50.5833ZM87.9033 40.2588C91.2151 40.2588 94.1484 41.9347 95.8518 44.3529L93.6755 45.4688C92.4457 43.6073 90.363 42.3961 87.9978 42.3961C84.2132 42.3961 81.28 45.3735 81.28 49.0019C81.28 52.6262 84.2132 55.509 87.9978 55.509C91.1208 55.509 93.5802 54.0221 93.7708 50.8591H88.377V48.9074H96.4207V49.0019C96.4207 54.1165 93.5802 57.7408 87.9042 57.7408C82.2264 57.7408 78.6307 53.8365 78.6307 49.0019C78.6307 44.1622 82.7937 40.2588 87.9033 40.2588ZM94.9997 57.1849L101.908 40.8189H103.517L110.423 57.1849H107.775L105.882 52.535H99.5419L97.6504 57.1849H94.9997ZM100.489 50.488L102.758 44.6278L104.936 50.488H100.489ZM134.647 57.1849L141.46 40.8189H143.067L149.975 57.1849H147.326L145.435 52.535H139.093L137.2 57.1849H134.647ZM140.04 50.488L142.311 44.6278L144.582 50.488H140.04ZM167.574 57.1849L174.483 40.8189H176.092L183 57.1849H180.349L178.363 52.535H172.117L170.226 57.1849H167.574ZM173.063 50.488L175.24 44.6278L177.51 50.488H173.063ZM116.385 42.6761C118.088 42.8617 118.654 43.512 118.654 45.1887C118.654 46.7702 117.519 47.606 116.1 47.606H113.923V42.6762L116.385 42.6761ZM116.574 49.5577H116.668C117.898 49.5577 120.075 49.8378 120.075 52.5351C120.075 54.6723 118.183 55.2324 116.385 55.2324H116.761H113.922V49.5569H116.574V49.5577ZM113.358 57.1849H117.615C120.549 57.1849 122.726 55.2332 122.726 52.535C122.726 50.3936 121.399 48.8164 119.507 48.1652C120.549 47.5107 121.117 46.3037 121.117 44.8167C121.117 42.3952 119.507 40.818 116.953 40.818C115.627 40.7235 114.208 40.818 112.884 40.818H112.788H111.37V57.1841H113.358L113.358 57.1849ZM129.063 42.6761C130.672 42.8617 131.24 43.512 131.334 45.1887C131.334 46.7702 130.199 47.606 128.779 47.606H126.603V42.6762L129.063 42.6761ZM129.159 49.5577H129.254C130.483 49.5577 132.658 49.8378 132.658 52.5351C132.658 54.6723 130.766 55.2324 128.969 55.2324H129.442H126.603V49.5569H129.159L129.159 49.5577ZM125.941 57.1849H130.295C133.228 57.1849 135.308 55.2332 135.308 52.535C135.308 50.3936 133.984 48.8164 132.093 48.1652C133.228 47.5107 133.794 46.3037 133.794 44.8166C133.794 42.3951 132.093 40.8179 129.631 40.8179C128.212 40.7234 126.888 40.8179 125.467 40.8179H123.955V57.184H125.941L125.941 57.1849ZM151.111 40.8189H152.72L164.359 52.9062V40.8188H166.629V57.1848H164.926L153.476 45.1878V57.1849H151.111V40.8189Z" fill="black"/>
</g>
<defs>
<clipPath id="clip0">
<rect width="183" height="20" fill="white" transform="translate(0 39)"/>
</clipPath>
</defs>
</svg>
