<svg width="183" height="98" viewBox="0 0 183 98" fill="none" xmlns="http://www.w3.org/2000/svg">
<path d="M27.9904 43.6989L31.0686 50.3153H24.8904L27.9686 43.6989H27.9904ZM23.628 53.1896H32.3529L33.9921 56.7317H37.5791L29.6294 40.268H26.396L18.4463 56.7317H21.9888L23.628 53.1896ZM132.643 43.6989L135.722 50.3153H129.542L132.621 43.6989H132.643ZM128.281 53.1896H137.005L138.644 56.7317H142.232L134.281 40.268H131.048L123.099 56.7317H126.642L128.281 53.1896ZM95.7974 48.4666C95.7974 53.5016 99.495 57.0886 104.898 57.0886C108.419 57.0886 110.323 55.7737 111.985 54.3931L110.147 51.986C109.017 52.8557 107.422 54.0583 104.965 54.0583C101.555 54.0583 99.2511 51.7644 99.2511 48.4666C99.2511 45.1698 101.532 42.9414 104.832 42.9414C107.047 42.9414 108.508 43.6541 109.726 44.6789L111.542 42.2507C109.836 40.8246 107.844 39.9111 104.832 39.9111C99.6503 39.9111 95.7976 43.4763 95.7976 48.4666H95.7974ZM160.081 42.1177C158.11 40.6913 156.294 39.9111 153.26 39.9111C147.989 39.9111 144.115 43.4315 144.115 48.4666C144.115 53.5234 147.901 57.0886 153.26 57.0886C156.671 57.0886 159.018 55.9298 160.967 54.1258V47.7979H153.039V50.6056H157.866V52.7882C157.18 53.3458 155.762 54.126 153.349 54.126C149.917 54.126 147.524 51.7646 147.524 48.4668C147.524 45.17 149.939 42.9189 153.26 42.9189C155.564 42.9189 157.07 43.6773 158.265 44.5458L160.081 42.1177ZM9.72091 49.5796C10.5183 49.5796 11.0725 49.6921 11.5368 50.0478C11.9803 50.3828 12.2895 50.9175 12.2895 51.6519C12.2895 52.3876 11.9803 52.9442 11.5368 53.2789C11.0725 53.6349 10.5183 53.7244 9.72091 53.7244H3.23349V49.5794L9.72091 49.5796ZM9.07886 43.2755C10.0095 43.2755 10.4966 43.4533 10.8285 43.7654C11.1387 44.1005 11.3154 44.5238 11.3154 44.9909C11.3154 45.4591 11.1387 45.8824 10.8285 46.2165C10.4966 46.5274 10.0095 46.7064 9.07886 46.7064H3.23349V43.2755H9.07886ZM56.867 56.7317H70.6849V53.7242H60.1003V49.5796H68.0273V46.7064H60.1003V43.2755H70.2422V40.268H56.867V56.7317ZM173.413 43.6989L176.49 50.3153H170.311L173.39 43.6989H173.413ZM169.05 53.1896H177.774L179.413 56.7317H183L175.051 40.268H171.818L163.867 56.7317H167.411L169.05 53.1896ZM119.356 40.268H116.122V56.7317H119.356V40.268ZM52.3939 53.7242H44.5547V40.268H41.3212V56.7317H52.3937L52.3939 53.7242ZM78.9231 51.7414C78.9231 48.244 78.768 45.17 78.768 45.17H78.8125C78.8125 45.17 80.3181 47.3306 83.0646 50.7387L87.8924 56.7317H91.0585V40.268H87.8253V45.3478C87.8253 48.8452 87.9575 51.9422 87.9575 51.9422H87.9142C87.9142 51.9422 86.4077 49.7814 83.684 46.3498L78.8568 40.268H75.6896V56.7317H78.9229L78.9231 51.7414ZM9.94234 56.7317C11.8026 56.7317 12.9318 56.3314 13.8179 55.6405C14.9916 54.7272 15.7226 53.3008 15.7226 51.5854C15.7226 49.1573 14.1281 47.8652 12.7993 47.5303V47.4866C14.0618 46.9072 14.7485 45.5923 14.7485 44.3002C14.7485 42.8302 14.1726 41.8056 13.2646 41.1595C12.3785 40.5353 11.1832 40.268 9.10171 40.268H0V56.7317H9.94234Z" fill="#141414"/>
</svg>
