<svg width="20" height="20" viewBox="0 0 20 20" fill="none" xmlns="http://www.w3.org/2000/svg">
<path fill-rule="evenodd" clip-rule="evenodd" d="M5.50008 3.33317C4.30508 3.33317 3.33341 4.30484 3.33341 5.49984C3.33341 11.6565 8.34258 16.6665 14.5001 16.6665C15.6942 16.6665 16.6667 15.6948 16.6667 14.4998C16.6667 14.4073 16.6609 14.3165 16.6492 14.2265L12.7992 13.3432C12.7226 13.4898 12.6384 13.649 12.5617 13.7973C12.1817 14.5223 11.9067 15.049 11.2051 14.7665C8.45008 13.7998 6.20091 11.5498 5.22175 8.7615C4.92425 8.10734 5.49091 7.81067 6.20925 7.43567C6.35508 7.359 6.51258 7.2765 6.65675 7.2015L5.77341 3.35067C5.68091 3.339 5.59091 3.33317 5.50008 3.33317M14.5001 18.3332C7.42341 18.3332 1.66675 12.5765 1.66675 5.49984C1.66675 3.38567 3.38591 1.6665 5.50008 1.6665C5.71675 1.6665 5.93091 1.68484 6.13841 1.72067C6.34091 1.75317 6.54425 1.80484 6.74258 1.87317C7.01341 1.96734 7.21758 2.19484 7.28175 2.47484L8.42258 7.44484C8.48591 7.71817 8.40675 8.00484 8.21175 8.20817C8.09841 8.3265 8.09591 8.329 7.06258 8.86984C7.89925 10.6815 9.35341 12.1307 11.1284 12.939C11.6701 11.9048 11.6734 11.9015 11.7917 11.7882C11.9951 11.5932 12.2834 11.5173 12.5551 11.5773L17.5259 12.7182C17.8051 12.7823 18.0326 12.9857 18.1259 13.2565C18.1942 13.4532 18.2459 13.6565 18.2801 13.8657C18.3151 14.0715 18.3334 14.2848 18.3334 14.4998C18.3334 16.614 16.6134 18.3332 14.5001 18.3332" fill="white"/>
<mask id="mask0" mask-type="alpha" maskUnits="userSpaceOnUse" x="1" y="1" width="18" height="18">
<path fill-rule="evenodd" clip-rule="evenodd" d="M5.50008 3.33317C4.30508 3.33317 3.33341 4.30484 3.33341 5.49984C3.33341 11.6565 8.34258 16.6665 14.5001 16.6665C15.6942 16.6665 16.6667 15.6948 16.6667 14.4998C16.6667 14.4073 16.6609 14.3165 16.6492 14.2265L12.7992 13.3432C12.7226 13.4898 12.6384 13.649 12.5617 13.7973C12.1817 14.5223 11.9067 15.049 11.2051 14.7665C8.45008 13.7998 6.20091 11.5498 5.22175 8.7615C4.92425 8.10734 5.49091 7.81067 6.20925 7.43567C6.35508 7.359 6.51258 7.2765 6.65675 7.2015L5.77341 3.35067C5.68091 3.339 5.59091 3.33317 5.50008 3.33317M14.5001 18.3332C7.42341 18.3332 1.66675 12.5765 1.66675 5.49984C1.66675 3.38567 3.38591 1.6665 5.50008 1.6665C5.71675 1.6665 5.93091 1.68484 6.13841 1.72067C6.34091 1.75317 6.54425 1.80484 6.74258 1.87317C7.01341 1.96734 7.21758 2.19484 7.28175 2.47484L8.42258 7.44484C8.48591 7.71817 8.40675 8.00484 8.21175 8.20817C8.09841 8.3265 8.09591 8.329 7.06258 8.86984C7.89925 10.6815 9.35341 12.1307 11.1284 12.939C11.6701 11.9048 11.6734 11.9015 11.7917 11.7882C11.9951 11.5932 12.2834 11.5173 12.5551 11.5773L17.5259 12.7182C17.8051 12.7823 18.0326 12.9857 18.1259 13.2565C18.1942 13.4532 18.2459 13.6565 18.2801 13.8657C18.3151 14.0715 18.3334 14.2848 18.3334 14.4998C18.3334 16.614 16.6134 18.3332 14.5001 18.3332" fill="white"/>
</mask>
<g mask="url(#mask0)">
</g>
</svg>
