<svg width="20" height="20" viewBox="0 0 20 20" fill="none" xmlns="http://www.w3.org/2000/svg">
<path fill-rule="evenodd" clip-rule="evenodd" d="M9.99998 9.16609C9.31081 9.16609 8.74998 8.60525 8.74998 7.91609C8.74998 7.22692 9.31081 6.66609 9.99998 6.66609C10.6891 6.66609 11.25 7.22692 11.25 7.91609C11.25 8.60525 10.6891 9.16609 9.99998 9.16609ZM9.99998 4.99942C8.39165 4.99942 7.08331 6.30775 7.08331 7.91609C7.08331 9.52442 8.39165 10.8328 9.99998 10.8328C11.6083 10.8328 12.9166 9.52442 12.9166 7.91609C12.9166 6.30775 11.6083 4.99942 9.99998 4.99942ZM9.99998 16.3715C8.60415 15.0515 4.99998 11.3457 4.99998 8.26817C4.99998 5.54734 7.24248 3.33317 9.99998 3.33317C12.7575 3.33317 15 5.54734 15 8.26817C15 11.3457 11.3958 15.0515 9.99998 16.3715ZM9.99998 1.6665C6.32415 1.6665 3.33331 4.62734 3.33331 8.26817C3.33331 12.8307 9.20748 17.9173 9.45748 18.1315C9.61415 18.2657 9.80665 18.3332 9.99998 18.3332C10.1933 18.3332 10.3858 18.2657 10.5425 18.1315C10.7925 17.9173 16.6666 12.8307 16.6666 8.26817C16.6666 4.62734 13.6758 1.6665 9.99998 1.6665Z" fill="white"/>
<mask id="mask0" mask-type="alpha" maskUnits="userSpaceOnUse" x="3" y="1" width="14" height="18">
<path fill-rule="evenodd" clip-rule="evenodd" d="M9.99998 9.16609C9.31081 9.16609 8.74998 8.60525 8.74998 7.91609C8.74998 7.22692 9.31081 6.66609 9.99998 6.66609C10.6891 6.66609 11.25 7.22692 11.25 7.91609C11.25 8.60525 10.6891 9.16609 9.99998 9.16609ZM9.99998 4.99942C8.39165 4.99942 7.08331 6.30775 7.08331 7.91609C7.08331 9.52442 8.39165 10.8328 9.99998 10.8328C11.6083 10.8328 12.9166 9.52442 12.9166 7.91609C12.9166 6.30775 11.6083 4.99942 9.99998 4.99942ZM9.99998 16.3715C8.60415 15.0515 4.99998 11.3457 4.99998 8.26817C4.99998 5.54734 7.24248 3.33317 9.99998 3.33317C12.7575 3.33317 15 5.54734 15 8.26817C15 11.3457 11.3958 15.0515 9.99998 16.3715ZM9.99998 1.6665C6.32415 1.6665 3.33331 4.62734 3.33331 8.26817C3.33331 12.8307 9.20748 17.9173 9.45748 18.1315C9.61415 18.2657 9.80665 18.3332 9.99998 18.3332C10.1933 18.3332 10.3858 18.2657 10.5425 18.1315C10.7925 17.9173 16.6666 12.8307 16.6666 8.26817C16.6666 4.62734 13.6758 1.6665 9.99998 1.6665Z" fill="white"/>
</mask>
<g mask="url(#mask0)">
</g>
</svg>
